<svg width="24" height="24" viewBox="0 0 24 24" fill="none" xmlns="http://www.w3.org/2000/svg">
<path d="M11.9995 8.00585C9.78813 8.00585 8.00536 9.80577 8.00536 12C8.00536 14.1941 9.80528 15.9941 11.9995 15.9941C14.1937 15.9941 15.9936 14.1941 15.9936 12C15.9936 9.80577 14.1937 8.00585 11.9995 8.00585ZM23.9989 12C23.9989 10.3372 23.9989 8.70867 23.9132 7.04589C23.8275 5.12597 23.3818 3.41176 21.9762 2.02326C20.5705 0.617604 18.8734 0.171909 16.9535 0.0861987C15.2907 0.000488198 13.6622 0.000488281 11.9995 0.000488281C10.3367 0.000488281 8.70818 0.000488198 7.0454 0.0861987C5.12549 0.171909 3.41128 0.617604 2.02277 2.02326C0.617115 3.42891 0.171421 5.12597 0.0857104 7.04589C-8.3017e-08 8.70867 0 10.3372 0 12C0 13.6627 -8.3017e-08 15.2912 0.0857104 16.954C0.171421 18.8739 0.617115 20.5881 2.02277 21.9767C3.42842 23.3823 5.12549 23.828 7.0454 23.9137C8.70818 23.9994 10.3367 23.9994 11.9995 23.9994C13.6622 23.9994 15.2907 23.9994 16.9535 23.9137C18.8734 23.828 20.5877 23.3823 21.9762 21.9767C23.3818 20.571 23.8275 18.8739 23.9132 16.954C24.0161 15.3084 23.9989 13.6627 23.9989 12ZM11.9995 18.154C8.58819 18.154 5.84545 15.4112 5.84545 12C5.84545 8.58868 8.58819 5.84594 11.9995 5.84594C15.4107 5.84594 18.1535 8.58868 18.1535 12C18.1535 15.4112 15.4107 18.154 11.9995 18.154ZM18.4106 7.02875C17.6221 7.02875 16.9707 6.39449 16.9707 5.58881C16.9707 4.78313 17.6049 4.14887 18.4106 4.14887C19.2163 4.14887 19.8505 4.78313 19.8505 5.58881C19.8549 5.77658 19.8206 5.96324 19.7498 6.13721C19.6791 6.31119 19.5733 6.46877 19.4391 6.60019C19.3077 6.73437 19.1501 6.84012 18.9762 6.91089C18.8022 6.98166 18.6155 7.01594 18.4277 7.0116L18.4106 7.02875Z" fill="#98A2B3"/>
</svg>
